<svg width="555" height="211" viewBox="0 0 555 211" fill="none" xmlns="http://www.w3.org/2000/svg">
<path d="M216.506 136V126.55L215.606 124.48V107.56C215.606 104.56 214.676 102.22 212.816 100.54C211.016 98.86 208.226 98.02 204.446 98.02C201.866 98.02 199.316 98.44 196.796 99.28C194.336 100.06 192.236 101.14 190.496 102.52L185.456 92.71C188.096 90.85 191.276 89.41 194.996 88.39C198.716 87.37 202.496 86.86 206.336 86.86C213.716 86.86 219.446 88.6 223.526 92.08C227.606 95.56 229.646 100.99 229.646 108.37V136H216.506ZM201.746 136.72C197.966 136.72 194.726 136.09 192.026 134.83C189.326 133.51 187.256 131.74 185.816 129.52C184.376 127.3 183.656 124.81 183.656 122.05C183.656 119.17 184.346 116.65 185.726 114.49C187.166 112.33 189.416 110.65 192.476 109.45C195.536 108.19 199.526 107.56 204.446 107.56H217.316V115.75H205.976C202.676 115.75 200.396 116.29 199.136 117.37C197.936 118.45 197.336 119.8 197.336 121.42C197.336 123.22 198.026 124.66 199.406 125.74C200.846 126.76 202.796 127.27 205.256 127.27C207.596 127.27 209.696 126.73 211.556 125.65C213.416 124.51 214.766 122.86 215.606 120.7L217.766 127.18C216.746 130.3 214.886 132.67 212.186 134.29C209.486 135.91 206.006 136.72 201.746 136.72ZM298.063 86.86C301.903 86.86 305.293 87.64 308.233 89.2C311.233 90.7 313.573 93.04 315.253 96.22C316.993 99.34 317.863 103.36 317.863 108.28V136H303.823V110.44C303.823 106.54 303.013 103.66 301.393 101.8C299.773 99.94 297.493 99.01 294.553 99.01C292.513 99.01 290.683 99.49 289.063 100.45C287.443 101.35 286.183 102.73 285.283 104.59C284.383 106.45 283.933 108.82 283.933 111.7V136H269.893V110.44C269.893 106.54 269.083 103.66 267.463 101.8C265.903 99.94 263.653 99.01 260.713 99.01C258.673 99.01 256.843 99.49 255.223 100.45C253.603 101.35 252.343 102.73 251.443 104.59C250.543 106.45 250.093 108.82 250.093 111.7V136H236.053V87.58H249.463V100.81L246.943 96.94C248.623 93.64 250.993 91.15 254.053 89.47C257.173 87.73 260.713 86.86 264.673 86.86C269.113 86.86 272.983 88 276.283 90.28C279.643 92.5 281.863 95.92 282.943 100.54L277.993 99.19C279.613 95.41 282.193 92.41 285.733 90.19C289.333 87.97 293.443 86.86 298.063 86.86ZM353.848 136V126.55L352.948 124.48V107.56C352.948 104.56 352.018 102.22 350.158 100.54C348.358 98.86 345.568 98.02 341.788 98.02C339.208 98.02 336.658 98.44 334.138 99.28C331.678 100.06 329.578 101.14 327.838 102.52L322.798 92.71C325.438 90.85 328.618 89.41 332.338 88.39C336.058 87.37 339.838 86.86 343.678 86.86C351.058 86.86 356.788 88.6 360.868 92.08C364.948 95.56 366.988 100.99 366.988 108.37V136H353.848ZM339.088 136.72C335.308 136.72 332.068 136.09 329.368 134.83C326.668 133.51 324.598 131.74 323.158 129.52C321.718 127.3 320.998 124.81 320.998 122.05C320.998 119.17 321.688 116.65 323.068 114.49C324.508 112.33 326.758 110.65 329.818 109.45C332.878 108.19 336.868 107.56 341.788 107.56H354.658V115.75H343.318C340.018 115.75 337.738 116.29 336.478 117.37C335.278 118.45 334.678 119.8 334.678 121.42C334.678 123.22 335.368 124.66 336.748 125.74C338.188 126.76 340.138 127.27 342.598 127.27C344.938 127.27 347.038 126.73 348.898 125.65C350.758 124.51 352.108 122.86 352.948 120.7L355.108 127.18C354.088 130.3 352.228 132.67 349.528 134.29C346.828 135.91 343.348 136.72 339.088 136.72ZM402.825 86.86C406.665 86.86 410.085 87.64 413.085 89.2C416.145 90.7 418.545 93.04 420.285 96.22C422.025 99.34 422.895 103.36 422.895 108.28V136H408.855V110.44C408.855 106.54 407.985 103.66 406.245 101.8C404.565 99.94 402.165 99.01 399.045 99.01C396.825 99.01 394.815 99.49 393.015 100.45C391.275 101.35 389.895 102.76 388.875 104.68C387.915 106.6 387.435 109.06 387.435 112.06V136H373.395V87.58H386.805V100.99L384.285 96.94C386.025 93.7 388.515 91.21 391.755 89.47C394.995 87.73 398.685 86.86 402.825 86.86ZM449.121 136.72C443.421 136.72 438.981 135.28 435.801 132.4C432.621 129.46 431.031 125.11 431.031 119.35V76.87H445.071V119.17C445.071 121.21 445.611 122.8 446.691 123.94C447.771 125.02 449.241 125.56 451.101 125.56C453.321 125.56 455.211 124.96 456.771 123.76L460.551 133.66C459.111 134.68 457.371 135.46 455.331 136C453.351 136.48 451.281 136.72 449.121 136.72ZM423.561 99.46V88.66H457.131V99.46H423.561ZM483.678 136.72C478.518 136.72 473.928 135.64 469.908 133.48C465.948 131.32 462.798 128.38 460.458 124.66C458.178 120.88 457.038 116.59 457.038 111.79C457.038 106.93 458.178 102.64 460.458 98.92C462.798 95.14 465.948 92.2 469.908 90.1C473.928 87.94 478.518 86.86 483.678 86.86C488.778 86.86 493.338 87.94 497.358 90.1C501.378 92.2 504.528 95.11 506.808 98.83C509.088 102.55 510.228 106.87 510.228 111.79C510.228 116.59 509.088 120.88 506.808 124.66C504.528 128.38 501.378 131.32 497.358 133.48C493.338 135.64 488.778 136.72 483.678 136.72ZM483.678 125.2C486.018 125.2 488.118 124.66 489.978 123.58C491.838 122.5 493.308 120.97 494.388 118.99C495.468 116.95 496.008 114.55 496.008 111.79C496.008 108.97 495.468 106.57 494.388 104.59C493.308 102.61 491.838 101.08 489.978 100C488.118 98.92 486.018 98.38 483.678 98.38C481.338 98.38 479.238 98.92 477.378 100C475.518 101.08 474.018 102.61 472.878 104.59C471.798 106.57 471.258 108.97 471.258 111.79C471.258 114.55 471.798 116.95 472.878 118.99C474.018 120.97 475.518 122.5 477.378 123.58C479.238 124.66 481.338 125.2 483.678 125.2ZM513.313 136V69.22H527.353V136H513.313ZM534.083 136V87.58H548.123V136H534.083ZM541.103 80.83C538.523 80.83 536.423 80.08 534.803 78.58C533.183 77.08 532.373 75.22 532.373 73C532.373 70.78 533.183 68.92 534.803 67.42C536.423 65.92 538.523 65.17 541.103 65.17C543.683 65.17 545.783 65.89 547.403 67.33C549.023 68.71 549.833 70.51 549.833 72.73C549.833 75.07 549.023 77.02 547.403 78.58C545.843 80.08 543.743 80.83 541.103 80.83Z" fill="currentColor"/>
<path d="M44 79L85 131L126 79" stroke="currentColor" stroke-width="12" stroke-linecap="round"/>
<path d="M24 40C24 40 47.5286 60 85 60C122.471 60 146 40 146 40" stroke="currentColor" stroke-width="12" stroke-linecap="round" stroke-linejoin="round"/>
<path d="M116 40C116 40 104.043 6 85 6C65.9571 6 54 40 54 40" stroke="currentColor" stroke-width="12" stroke-linecap="round" stroke-linejoin="round"/>
<path d="M24 92L85 169L146 92" stroke="currentColor" stroke-width="12" stroke-linecap="round"/>
<path d="M6 101L85 201L164 101" stroke="currentColor" stroke-width="12" stroke-linecap="round"/>
</svg>
